<svg width="72" height="49" viewBox="0 0 72 49" fill="none" xmlns="http://www.w3.org/2000/svg">
<path d="M1.5 6C1.5 4.34315 2.84315 3 4.5 3H69C70.6569 3 72 4.34315 72 6V42C72 45.3137 69.3137 48 66 48H4.5C2.84315 48 1.5 46.6569 1.5 45V6Z" fill="white"/>
<path fill-rule="evenodd" clip-rule="evenodd" d="M72 5.33838C72 2.39504 69.6518 0 66.7689 0H5.22889C2.34592 0 0 2.39504 0 5.33838V43.6591C0 46.6024 2.34592 48.9975 5.22889 48.9975H66.7689C69.6541 48.9975 72 46.6024 72 43.6591V5.33838ZM68.8267 21.255L71.9996 24.4966L68.829 27.768V43.6202C68.829 44.7948 67.8964 45.7491 66.7437 45.7491H5.26214C4.10941 45.7491 3.17688 44.7971 3.17688 43.6202V5.36606C3.17688 4.18919 4.10941 3.23713 5.26214 3.23713H66.7415C67.8942 3.23713 68.8267 4.18919 68.8267 5.36606V21.255Z" fill="#FF7C00"/>
<path d="M24.7669 21.0443C24.7669 20.8264 24.8051 20.613 24.8815 20.4295C24.9691 20.2322 25.0792 20.0556 25.2231 19.911C25.3691 19.7619 25.5354 19.6449 25.7264 19.5646C26.1151 19.3926 26.5713 19.3926 26.9713 19.5669C27.1578 19.6449 27.3285 19.7619 27.4701 19.9156C27.6139 20.0556 27.7263 20.2322 27.8094 20.4341C27.8926 20.6199 27.9352 20.8264 27.9352 21.0443V24.0817H29.3194V21.0443C29.3194 20.6245 29.2363 20.2299 29.0835 19.8743C28.9352 19.5027 28.7172 19.1792 28.4476 18.9154C28.1779 18.6378 27.8588 18.4153 27.4993 18.2662C26.8027 17.945 25.9219 17.9404 25.1961 18.2662C24.8388 18.4153 24.5175 18.6378 24.2411 18.9154C23.9804 19.1815 23.7692 19.5027 23.6097 19.8743C23.4614 20.2322 23.3872 20.6245 23.3872 21.0443V24.0817H24.7647V21.0443H24.7669Z" fill="#0169B5"/>
<path d="M22.5331 18.9144C22.2388 18.6185 21.9084 18.3913 21.5422 18.2514C20.8186 17.9486 20.0411 17.9486 19.3086 18.2514C18.9468 18.3913 18.6165 18.6185 18.3289 18.9144C18.0413 19.208 17.821 19.543 17.684 19.91C17.5379 20.2817 17.4683 20.6602 17.4683 21.0433C17.4683 21.431 17.5379 21.8119 17.684 22.1904C17.821 22.5574 18.0413 22.8947 18.3289 23.1906C18.6098 23.4774 18.9333 23.6999 19.2906 23.8513C19.6524 24.0027 20.0321 24.0807 20.4321 24.0807C20.8276 24.0807 21.2096 24.005 21.5669 23.8513C21.9264 23.6999 22.25 23.4774 22.5331 23.1906L23.0117 22.6951L22.0343 21.6971L21.5534 22.1881C21.3017 22.4496 21.0119 22.5987 20.6748 22.6538C20.6007 22.6653 20.5198 22.6721 20.4456 22.6721C20.2591 22.6721 20.0861 22.6377 19.9086 22.5712L23.014 19.403L22.5331 18.9144ZM20.5782 19.894L18.9311 21.5756C18.8659 21.4081 18.8367 21.2269 18.8367 21.0433C18.8367 20.5937 18.9918 20.2197 19.3064 19.8986C19.5558 19.6462 19.8434 19.4971 20.167 19.4443C20.2479 19.4329 20.3288 19.4283 20.4097 19.4283C20.5939 19.4283 20.7737 19.4604 20.9489 19.5246C20.8501 19.6279 20.7242 19.7518 20.5782 19.894Z" fill="#0169B5"/>
<path d="M13.3911 19.91C13.5484 19.7563 13.7259 19.637 13.9169 19.5545C14.3057 19.3962 14.7191 19.3962 15.1079 19.5545C15.3034 19.637 15.4786 19.7586 15.6359 19.9146L16.137 20.4056L17.101 19.4053L16.6156 18.9144C16.3235 18.6185 15.9887 18.3913 15.6269 18.2514C14.9056 17.9486 14.1237 17.9486 13.3911 18.2514C13.0338 18.3913 12.7035 18.6185 12.4114 18.9144C12.1193 19.2035 11.9058 19.543 11.7643 19.91C11.6227 20.2817 11.5508 20.6671 11.5508 21.0594C11.5508 21.4425 11.6227 21.8256 11.7643 22.1904C11.9058 22.5574 12.117 22.897 12.4114 23.1906C12.699 23.4843 13.0293 23.7114 13.3934 23.8651C13.7596 24.0096 14.1394 24.0784 14.5124 24.0784C14.8877 24.0784 15.2607 24.0096 15.6202 23.8651C15.9887 23.7091 16.3213 23.482 16.6134 23.1906L17.0988 22.6951L16.1348 21.6972L15.6292 22.1881C15.4854 22.351 15.3079 22.468 15.1191 22.546C14.9259 22.6263 14.7236 22.6653 14.5102 22.6653C14.0697 22.6653 13.7012 22.5116 13.3889 22.1858C13.2293 22.0252 13.117 21.8486 13.0383 21.649C12.9597 21.4517 12.9192 21.2475 12.9192 21.0387C12.9192 20.8346 12.9597 20.6281 13.0383 20.4285C13.1147 20.2404 13.2338 20.0683 13.3911 19.91Z" fill="#0169B5"/>
<path d="M43.8446 19.4357H47.395V18.0226H43.8446C43.5907 18.0226 43.348 18.0753 43.1211 18.174C42.9054 18.2681 42.7144 18.3988 42.5526 18.5617C42.3863 18.7292 42.256 18.931 42.1571 19.1605C42.0627 19.3807 42.02 19.6262 42.02 19.8831C42.02 20.14 42.0627 20.3855 42.1571 20.6218C42.256 20.8397 42.3863 21.037 42.5548 21.2137C42.7121 21.3788 42.9054 21.5165 43.1211 21.6174C43.348 21.7092 43.5907 21.7574 43.8446 21.7574H46.1164C46.2535 21.7574 46.3568 21.801 46.4445 21.8858C46.5299 21.973 46.5703 22.0763 46.5703 22.207C46.5703 22.3447 46.5299 22.4525 46.4445 22.5397C46.3568 22.6223 46.2535 22.6681 46.1164 22.6681H42.5773V24.079H46.1164C46.3703 24.079 46.6085 24.0308 46.8287 23.9414C47.0512 23.8404 47.2512 23.7028 47.4085 23.5376C47.5837 23.3632 47.7141 23.1614 47.8062 22.9411C47.9051 22.7117 47.9545 22.4617 47.9545 22.207C47.9545 21.9478 47.9028 21.7023 47.8062 21.4844C47.7141 21.2527 47.5837 21.0485 47.4085 20.8856C47.2489 20.7181 47.0512 20.5874 46.8287 20.5002C46.6108 20.397 46.3726 20.3442 46.1164 20.3442H43.8446C43.7188 20.3442 43.6132 20.3006 43.5345 20.2157C43.4469 20.1194 43.4065 20.0139 43.4065 19.8808C43.4065 19.7546 43.4469 19.6491 43.5278 19.5619C43.6132 19.477 43.7143 19.4357 43.8446 19.4357Z" fill="#0169B5"/>
<path d="M31.5786 19.91C31.7382 19.7563 31.9112 19.637 32.1022 19.5545C32.4932 19.3962 32.9111 19.3962 33.2976 19.5545C33.4931 19.637 33.6684 19.7563 33.8257 19.9146L34.3223 20.4056L35.284 19.4053L34.8009 18.9144C34.511 18.6185 34.1762 18.3913 33.8122 18.2514C33.0886 17.9486 32.3134 17.9486 31.5831 18.2514C31.2168 18.3913 30.8865 18.6185 30.5967 18.9144C30.3068 19.208 30.0911 19.543 29.9518 19.91C29.8102 20.2817 29.7383 20.6671 29.7383 21.0594C29.7383 21.4425 29.8124 21.8256 29.9518 22.1904C30.0911 22.5574 30.3068 22.8947 30.5967 23.1906C30.8843 23.4843 31.2146 23.7114 31.5831 23.8651C31.9471 24.0096 32.3269 24.0784 32.7044 24.0784C33.0774 24.0784 33.4527 24.0096 33.8099 23.8651C34.1762 23.7091 34.511 23.4843 34.8009 23.1906L35.284 22.6951L34.3223 21.6972L33.8212 22.1881C33.6729 22.351 33.5021 22.468 33.3088 22.546C33.1134 22.6263 32.9089 22.6653 32.7021 22.6653C32.2572 22.6653 31.8932 22.5116 31.5764 22.1858C31.4213 22.0252 31.3067 21.8486 31.2258 21.649C31.1472 21.4517 31.1067 21.2475 31.1067 21.0387C31.1067 20.8346 31.1472 20.6281 31.2258 20.4285C31.3112 20.2404 31.4236 20.0683 31.5786 19.91Z" fill="#0169B5"/>
<path d="M52.9281 21.0439C52.9281 21.2641 52.8832 21.4798 52.7978 21.6794C52.7236 21.879 52.609 22.0533 52.4585 22.2047C52.3192 22.347 52.1529 22.464 51.9574 22.5488C51.5686 22.7094 51.0945 22.7048 50.7193 22.5534C50.5305 22.464 50.3575 22.3447 50.2137 22.2093C50.0744 22.0556 49.9575 21.879 49.8744 21.6794C49.7957 21.4844 49.7575 21.271 49.7575 21.0439V18.0226H48.3711V21.0439C48.3711 21.4591 48.4497 21.8537 48.598 22.2231C48.7531 22.5878 48.9711 22.9159 49.2317 23.1912C49.5036 23.4688 49.8227 23.6913 50.1867 23.8519C50.544 24.0033 50.9305 24.0813 51.3327 24.0813C51.7484 24.0813 52.1327 24.0033 52.4854 23.8519C52.8427 23.6913 53.1596 23.4711 53.4359 23.1912C53.7078 22.9136 53.9213 22.5855 54.0696 22.2231C54.2292 21.8537 54.31 21.4614 54.31 21.0439V18.0226H52.9236V21.0439H52.9281Z" fill="#0169B5"/>
<path d="M59.2885 15.6963V18.0173H57.7133C57.3066 18.0173 56.9178 18.0998 56.5628 18.2604C56.1988 18.4117 55.8797 18.6319 55.6078 18.9094C55.3359 19.1731 55.1202 19.4965 54.9584 19.8681C54.8101 20.2258 54.7314 20.618 54.7314 21.0377C54.7314 21.4528 54.8101 21.8473 54.9584 22.2165C55.1202 22.5812 55.3337 22.9092 55.6033 23.1844C55.8774 23.4619 56.1965 23.6843 56.5605 23.8449C56.9133 23.9963 57.3043 24.0742 57.711 24.0742C58.1133 24.0742 58.4975 23.9963 58.8615 23.8449C59.2211 23.6843 59.5379 23.4642 59.8008 23.1844C60.0727 22.9069 60.2817 22.5812 60.43 22.2165C60.5895 21.8473 60.6681 21.4551 60.6681 21.0377V15.6963H59.2885ZM59.2885 21.0377C59.2885 21.2602 59.2458 21.4735 59.1581 21.673C59.0795 21.8725 58.9694 22.0468 58.8188 22.1982C58.6795 22.3404 58.5087 22.4574 58.3155 22.5422C57.947 22.7028 57.4728 22.6982 57.0908 22.5468C56.8931 22.4574 56.7201 22.3381 56.574 22.2028C56.4347 22.0491 56.3201 21.8725 56.237 21.673C56.1583 21.4781 56.1201 21.2648 56.1201 21.0377C56.1201 20.8153 56.1583 20.6065 56.237 20.4231C56.3201 20.2258 56.4325 20.0492 56.574 19.9048C56.7201 19.7557 56.8954 19.641 57.0908 19.5584C57.2841 19.4759 57.4953 19.43 57.711 19.43H59.2862V21.0377H59.2885Z" fill="#0169B5"/>
<path d="M37.473 23.8516C37.8281 24.003 38.2146 24.081 38.619 24.081C39.0302 24.081 39.4167 24.0053 39.774 23.8516C40.1268 23.691 40.4504 23.4685 40.7178 23.1909C40.9897 22.9133 41.2054 22.5853 41.3537 22.2228C41.5155 21.8535 41.5919 21.4589 41.5919 21.0436C41.5919 20.6238 41.5132 20.2292 41.3537 19.8736C41.2054 19.502 40.9919 19.1808 40.7178 18.9147C40.4504 18.6371 40.1268 18.4146 39.774 18.2701C39.0774 17.9466 38.1966 17.9397 37.473 18.2655C37.109 18.4146 36.7922 18.6371 36.5158 18.9147C36.2551 19.1808 36.0394 19.502 35.8821 19.8736C35.7361 20.2315 35.6597 20.6238 35.6597 21.0436C35.6597 21.4589 35.7361 21.8535 35.8821 22.2228C36.0394 22.5876 36.2506 22.9156 36.5158 23.1909C36.7922 23.4685 37.1068 23.691 37.473 23.8516ZM37.145 20.4288C37.2304 20.2315 37.345 20.0549 37.4843 19.9104C37.6303 19.7612 37.8033 19.6465 38.0011 19.5639C38.1966 19.4814 38.4011 19.4355 38.619 19.4355C38.837 19.4355 39.0437 19.4814 39.2392 19.5662C39.4302 19.6465 39.601 19.7635 39.7426 19.9149C39.8909 20.0572 39.9987 20.2315 40.0796 20.4334C40.1627 20.6192 40.2054 20.8257 40.2054 21.0436C40.2054 21.2639 40.1628 21.4818 40.0774 21.6791C39.9987 21.8787 39.8864 22.053 39.7381 22.2045C39.5987 22.3467 39.4302 22.4614 39.237 22.5486C38.8482 22.7092 38.3786 22.7046 37.9966 22.5532C37.8011 22.4637 37.6236 22.3444 37.4843 22.209C37.3427 22.053 37.2281 21.8787 37.1405 21.6791C37.0641 21.4841 37.0236 21.2708 37.0236 21.0436C37.0304 20.8257 37.0686 20.6169 37.145 20.4288Z" fill="#0169B5"/>
<path d="M11.7797 31.6263C12.2044 31.8603 12.7953 32.0416 13.4762 32.0416C13.9975 32.0416 14.4919 31.9337 14.4919 31.429C14.4919 30.2567 11.5752 30.9954 11.5752 28.7036C11.5752 27.1872 13.0245 26.7743 14.2604 26.7743C14.8514 26.7743 15.4356 26.8638 15.8513 27.0083L15.7457 28.3068C15.3233 28.1095 14.8447 28.0177 14.3773 28.0177C13.9616 28.0177 13.274 28.0544 13.274 28.605C13.274 29.6236 16.1884 28.9399 16.1884 31.2111C16.1884 32.8445 14.8447 33.285 13.4762 33.285C12.9032 33.285 12.1864 33.1955 11.6381 33.0143L11.7797 31.6263Z" fill="#FB011D"/>
<path d="M20.6182 29.8239C20.3261 29.6426 20.034 29.5623 19.6542 29.5623C18.9644 29.5623 18.4341 30.0487 18.4341 30.8608C18.4341 31.6087 19.052 32.0973 19.7419 32.0973C20.1037 32.0973 20.4654 32.017 20.7306 31.8725L20.7665 33.0815C20.3688 33.2168 19.8924 33.288 19.4677 33.288C17.9487 33.288 16.7915 32.3864 16.7915 30.8356C16.7915 29.2756 17.9487 28.3717 19.4677 28.3717C19.9441 28.3717 20.3688 28.452 20.7306 28.6332L20.6182 29.8239Z" fill="#FB011D"/>
<path d="M21.1768 30.8328C21.1768 29.2728 22.334 28.3689 23.853 28.3689C25.372 28.3689 26.5315 29.2705 26.5315 30.8328C26.5315 32.3836 25.3742 33.2875 23.853 33.2875C22.334 33.2875 21.1768 32.3836 21.1768 30.8328ZM24.8866 30.8328C24.8866 30.1285 24.5855 29.5068 23.853 29.5068C23.1205 29.5068 22.8194 30.1285 22.8194 30.8328C22.8194 31.5279 23.1205 32.1496 23.853 32.1496C24.5878 32.1496 24.8866 31.5279 24.8866 30.8328Z" fill="#FB011D"/>
<path d="M26.8413 28.4788H27.7783V27.4235L29.3423 26.928V28.4788H30.4546V29.6144H29.3423V31.3464C29.3423 31.9153 29.4749 32.2044 29.9782 32.2044C30.1377 32.2044 30.304 32.1677 30.4636 32.1402L30.5175 33.1954C30.2164 33.2322 29.9153 33.2849 29.5198 33.2849C28.0974 33.2849 27.7536 32.6449 27.7536 31.5253V29.6121H26.8436V28.4788H26.8413Z" fill="#FB011D"/>
<path d="M32.8956 27.7127H31.3047V26.5221H32.8956V27.7127ZM31.3047 28.479H32.8956V33.1796H31.3047V28.479Z" fill="#FB011D"/>
<path d="M36.9501 33.1773C36.9411 32.925 36.9142 32.6818 36.9142 32.4386H36.8962C36.5344 33.0259 36.0917 33.2875 35.4378 33.2875C34.5278 33.2875 33.7144 32.8286 33.7144 31.8078C33.7144 30.3739 35.2424 30.2019 36.0917 30.2019C36.3479 30.2019 36.631 30.2294 36.8333 30.2661C36.8243 29.6261 36.3569 29.454 35.7816 29.454C35.2693 29.454 34.757 29.5527 34.3143 29.805L34.2874 28.7038C34.8536 28.4698 35.4446 28.3689 36.1254 28.3689C37.3007 28.3689 38.3163 28.8828 38.3163 30.3166V32.067C38.3163 32.4363 38.3343 32.8057 38.404 33.1773H36.9501ZM35.8535 32.2046C36.4535 32.2046 36.8333 31.6449 36.8333 31.0943C36.631 31.0851 36.3996 31.0668 36.1614 31.0668C35.6221 31.0668 35.1974 31.2388 35.1974 31.6885C35.1997 32.0142 35.4828 32.2046 35.8535 32.2046Z" fill="#FB011D"/>
<path d="M39.2783 26.4117H40.8782V29.0821H40.8962C41.3029 28.559 41.8422 28.3686 42.4781 28.3686C43.75 28.3686 44.4488 29.6051 44.4488 30.7407C44.4488 32.1286 43.7163 33.2849 42.3456 33.2849C41.613 33.2849 40.9681 32.8605 40.7636 32.3374H40.7457V33.1748H39.2783V26.4117ZM41.8422 29.6143C41.258 29.6143 40.8692 30.1374 40.8692 30.8417C40.8692 31.5276 41.3119 32.0415 41.8422 32.0415C42.4422 32.0415 42.8062 31.5276 42.8062 30.7774C42.804 30.1557 42.4602 29.6143 41.8422 29.6143Z" fill="#FB011D"/>
<path d="M48.1606 33.1773C48.1516 32.925 48.1246 32.6818 48.1246 32.4386H48.1066C47.7448 33.0259 47.3022 33.2875 46.6483 33.2875C45.7382 33.2875 44.9248 32.8286 44.9248 31.8078C44.9248 30.3739 46.4528 30.2019 47.3022 30.2019C47.5583 30.2019 47.8415 30.2294 48.0437 30.2661C48.0347 29.6261 47.5673 29.454 46.9921 29.454C46.4798 29.454 45.9674 29.5527 45.5248 29.805L45.4978 28.7038C46.0641 28.4698 46.655 28.3689 47.3359 28.3689C48.5111 28.3689 49.5268 28.8828 49.5268 30.3166V32.067C49.5268 32.4363 49.5447 32.8057 49.6144 33.1773H48.1606ZM47.064 32.2046C47.664 32.2046 48.0437 31.6449 48.0437 31.0943C47.8415 31.0851 47.61 31.0668 47.3718 31.0668C46.8325 31.0668 46.4079 31.2388 46.4079 31.6885C46.4101 32.0142 46.6932 32.2046 47.064 32.2046Z" fill="#FB011D"/>
<path d="M50.502 28.4795H51.9513V29.3467H51.9693C52.2884 28.6699 52.9243 28.3717 53.6478 28.3717C54.9017 28.3717 55.405 29.2733 55.405 30.2483V33.1801H53.8141V30.9067C53.8141 30.0212 53.513 29.7252 53.0816 29.7252C52.4277 29.7252 52.0929 30.1863 52.0929 31.1957V33.1801H50.502V28.4795Z" fill="#FB011D"/>
<path d="M56.3813 26.4117H57.9723V30.4539H57.9902L59.316 28.4787H61.0552L59.4553 30.6352L61.1878 33.177H59.2621L57.9902 30.8508H57.9723V33.177H56.3813V26.4117Z" fill="#FB011D"/>
</svg>
