<?xml version="1.0" encoding="UTF-8"?>
<svg id="Capa_1" xmlns="http://www.w3.org/2000/svg" version="1.1" viewBox="0 0 193 120">
  <!-- Generator: Adobe Illustrator 30.0.0, SVG Export Plug-In . SVG Version: 2.1.1 Build 123)  -->
  <defs>
    <style>
      .st0 {
        fill: #5a5a58;
      }

      .st1 {
        opacity: .36;
      }

      .st1, .st2 {
        fill: #fff;
      }

      .st3 {
        fill: #d56a33;
      }

      .st4 {
        fill: #8c4799;
      }

      .st5 {
        fill: #ee2737;
      }

      .st6 {
        fill: #ffb81c;
      }

      .st7 {
        fill: #e59e41;
      }

      .st8 {
        fill: #cc322e;
      }
    </style>
  </defs>
  <path class="st0" d="M186.33,120H6.67c-3.41,0-6.17-2.72-6.17-6.07V6.07C.5,2.72,3.26,0,6.67,0h179.66c3.41,0,6.17,2.72,6.17,6.07v107.86c0,3.35-2.76,6.07-6.17,6.07Z"/>
  <path class="st1" d="M102.47,106.21c0-.62-.78-.83-.78-.83-8.08-1.44-15.59-6.97-21.26-12.8-9.27-9.55-17.09-21.79-20.11-27.47-.91-2.05.38-2.25.38-2.25h0c15.65-5.95,18.22-21.38,18.22-25.6,0-19.52-18.78-25.32-35.69-25.32-6.4,0-8.52.51-15.19.51-7.76,0-12.39-.51-13.62-.51-1.05,0-1.75.91-1.75,1.97,0,4.72,10.93-3.27,10.93,12.48v62.84c0,14.54-10.39,10.49-10.39,14.02,0,1.16,1.37,1.57,2.16,1.57,3.87,0,8.24-.51,14.52-.51,7.88,0,9.87.51,14.4.51,3.33,0,3.87-.64,3.87-1.57,0-4.45-13.99,2.37-13.99-16.53V20.5c0-3.95,2.92-3.95,7.16-3.95,15.36,0,27.48,8.38,27.73,24.28.17,10.73-7.98,20.95-21.59,20.95-4.81,0-3.72-.25-4.82-.25-.63,0-1.32.25-1.32,1.14,0,1.24.99,1.86,2.15,2.16,1.49.63,4.91,1.18,8.51,6.58,9.09,14.66,19.3,36.61,42.64,36.61,8.7,0,7.84-1.02,7.84-1.81"/>
  <g>
    <path class="st3" d="M169.34,106.03h-8.3v-14.68h8.3v14.68Z"/>
    <path class="st8" d="M161.57,98.69c0-2.98,1.42-5.63,3.62-7.34-1.67-1.3-3.74-2-5.86-2-5.24,0-9.49,4.18-9.49,9.34s4.25,9.34,9.49,9.34c2.13,0,4.19-.7,5.86-2-2.21-1.71-3.62-4.36-3.62-7.34"/>
    <path class="st7" d="M180.55,98.69c0,5.16-4.25,9.34-9.49,9.34-2.13,0-4.19-.7-5.87-2,2.21-1.71,3.63-4.36,3.63-7.34s-1.42-5.63-3.63-7.34c1.67-1.3,3.74-2,5.87-2,5.24,0,9.49,4.18,9.49,9.34"/>
  </g>
  <g>
    <g>
      <path class="st2" d="M126.4,13.93c.1-.03.2-.05.3-.08.09-.02.19-.04.3-.05.11-.01.22-.02.33-.02.43,0,.82.07,1.17.22.35.14.65.34.91.59.25.25.45.54.59.88.14.34.21.7.21,1.08s-.07.74-.21,1.08c-.14.34-.34.63-.59.88-.25.25-.56.45-.91.59-.35.14-.74.22-1.17.22-.28,0-.55-.02-.81-.07-.26-.05-.5-.1-.71-.16-.23-.06-.46-.14-.67-.23v-6.86s.02-.04.04-.04h1.18s.04.02.04.04v1.95ZM127.33,18.18c.23,0,.45-.04.64-.12.19-.08.36-.19.49-.33.14-.14.24-.32.32-.52.07-.2.11-.42.11-.67s-.04-.47-.11-.67c-.07-.2-.18-.37-.32-.52-.14-.14-.3-.25-.49-.33-.19-.08-.4-.12-.64-.12-.11,0-.22,0-.33.03-.11.02-.21.03-.29.05-.1.03-.2.05-.3.08v2.97c.1.03.2.05.3.07.09.03.19.05.3.06.11.01.22.02.33.02"/>
      <path class="st2" d="M146.43,18.68s0,.04-.01.06c-.14.11-.29.2-.46.28-.17.08-.36.15-.57.22-.21.06-.46.09-.74.09-.43,0-.82-.07-1.17-.22-.35-.14-.65-.34-.91-.59-.25-.25-.45-.54-.59-.88-.14-.34-.21-.7-.21-1.08s.07-.74.21-1.08c.14-.34.34-.63.59-.88.25-.25.56-.44.91-.59.35-.14.74-.22,1.17-.22.27,0,.51.03.72.09.21.06.4.12.56.19.16.08.31.17.45.26.02.01.02.04.01.06l-.45.84s-.04.03-.06.02c-.09-.06-.18-.11-.28-.16-.11-.05-.24-.09-.38-.12-.14-.03-.3-.05-.47-.05-.23,0-.45.04-.65.13-.2.09-.38.21-.53.36-.15.15-.27.32-.35.52-.08.2-.13.41-.13.62s.04.43.13.62c.08.2.2.37.35.52.15.15.33.27.53.36.2.09.42.13.65.13.19,0,.36-.02.51-.06.15-.04.28-.09.38-.14.11-.05.2-.11.29-.18.02-.02.05,0,.06.01l.45.84Z"/>
      <path class="st2" d="M146.49,16.57c0-.38.07-.74.21-1.08.14-.34.33-.63.58-.88.24-.25.53-.44.86-.59.33-.14.69-.22,1.08-.22s.75.07,1.09.22c.33.14.62.34.87.59.24.25.43.54.57.88.14.34.2.7.2,1.08s-.07.74-.2,1.08c-.14.34-.33.63-.57.88-.24.25-.53.45-.87.59-.33.14-.7.22-1.09.22s-.75-.07-1.08-.22c-.33-.14-.62-.34-.86-.59-.24-.25-.44-.54-.58-.88-.14-.34-.21-.7-.21-1.08M150.64,16.57c0-.25-.04-.47-.11-.67-.07-.2-.18-.37-.3-.52-.13-.14-.28-.25-.45-.33-.17-.08-.36-.12-.55-.12s-.38.04-.55.12c-.17.08-.32.19-.45.33-.13.14-.23.32-.3.52-.07.2-.11.42-.11.67s.04.47.11.67c.07.2.17.37.3.52.13.14.28.25.45.33.17.08.36.12.55.12s.38-.04.55-.12c.17-.08.32-.19.45-.33.13-.14.23-.32.3-.52.08-.2.11-.42.11-.67"/>
      <path class="st2" d="M157.1,14.93c-.11,0-.22.01-.32.04-.1.02-.19.05-.26.07-.09.04-.18.08-.25.12v3.93s-.02.04-.04.04h-1.18s-.04-.02-.04-.04v-4.82c.18-.09.38-.17.6-.24.2-.06.41-.11.64-.16.23-.04.49-.07.76-.07.24,0,.46.02.66.06.2.04.37.09.52.14.16.06.31.12.44.19.02.01.03.03.02.05l-.31.99s-.04.04-.06.02c-.09-.06-.18-.11-.29-.15-.12-.05-.25-.09-.39-.13-.15-.04-.31-.06-.49-.06"/>
      <path class="st2" d="M159.14,12.53c0-.2.07-.38.22-.54.15-.15.33-.23.56-.23s.41.08.56.23c.15.15.22.33.22.54s-.07.38-.22.54c-.15.15-.34.23-.56.23s-.41-.08-.56-.23c-.15-.15-.22-.33-.22-.54M159.33,14.01h1.18s.04.02.04.05v5.03s-.02.04-.04.04h-1.16s-.06-.03-.06-.07v-5.01s.02-.05.04-.05"/>
      <path class="st2" d="M162.88,21.05h-1.18s-.04-.02-.04-.05v-6.73s.01-.04.03-.04c.21-.08.42-.16.65-.22.22-.06.46-.11.72-.16.26-.04.52-.07.8-.07.43,0,.82.07,1.17.21.35.14.65.34.91.59.25.25.45.54.59.88.14.34.21.7.21,1.08s-.07.74-.21,1.08c-.14.34-.34.63-.59.88-.25.25-.56.45-.91.59-.35.14-.74.22-1.17.22-.11,0-.22,0-.33-.03-.11-.02-.21-.03-.29-.05-.1-.03-.2-.05-.3-.08v1.85s-.02.05-.04.05M163.85,14.91c-.11,0-.22,0-.33.03-.11.02-.21.03-.29.05-.1.03-.2.05-.3.08v2.97c.1.03.2.05.3.07.09.03.19.05.3.06.11.01.22.02.33.02.23,0,.45-.04.64-.12.19-.08.36-.19.49-.33.14-.14.24-.32.32-.52.07-.2.11-.42.11-.67s-.04-.47-.11-.67c-.07-.2-.18-.37-.32-.52-.14-.14-.3-.25-.49-.33-.19-.08-.4-.12-.64-.12"/>
      <path class="st2" d="M167.68,19.13s-.04-.02-.04-.04v-7.07s.02-.05.04-.05h1.18s.04.02.04.05v7.07s-.02.04-.04.04"/>
      <line class="st2" x1="168.87" y1="19.13" x2="167.68" y2="19.13"/>
      <path class="st2" d="M174.23,17.16h-3.16c.1.28.28.52.52.72.24.2.59.3,1.05.3.2,0,.37-.02.53-.06.16-.04.29-.09.4-.14.11-.05.21-.11.3-.18.02-.02.05,0,.06.01l.45.84s0,.05-.01.06c-.14.11-.3.2-.48.28-.17.08-.37.15-.59.22-.22.06-.48.09-.76.09-.43,0-.82-.07-1.17-.21-.35-.14-.64-.33-.89-.58-.25-.25-.44-.54-.57-.87-.13-.34-.2-.7-.2-1.1s.06-.78.19-1.12c.13-.34.31-.63.54-.88.23-.25.5-.44.82-.57.31-.13.66-.2,1.04-.2s.72.07,1.04.2c.32.13.59.32.82.57.23.25.41.54.54.88.12.33.19.7.19,1.1,0,.01,0,.02-.01.03l-.61.59s-.02.01-.03.01M173.52,16.08c-.05-.33-.19-.61-.41-.84-.22-.23-.49-.34-.81-.34s-.59.11-.81.34c-.22.23-.36.5-.41.84h2.45Z"/>
      <path class="st2" d="M180.55,18.69c0,.31-.06.6-.19.88-.12.28-.31.53-.55.75-.24.22-.53.39-.87.52-.34.13-.73.19-1.18.19-.29,0-.55-.03-.79-.1-.23-.07-.43-.13-.59-.21-.19-.09-.37-.19-.52-.31l.47-.88s.04-.03.06-.02c.11.07.23.13.36.18.13.05.28.1.45.14.17.04.36.06.57.06.33,0,.6-.06.79-.17.2-.12.35-.25.45-.39.12-.16.21-.35.26-.56v-.1c-.12.02-.23.04-.35.05-.11.01-.23.03-.35.04-.12.01-.25.02-.37.02-.42,0-.78-.06-1.1-.17-.32-.12-.59-.28-.81-.48-.22-.2-.39-.45-.5-.73-.11-.28-.17-.59-.17-.92v-2.67s.02-.05.04-.05h1.18s.04.02.04.05v2.67c0,.33.12.61.35.84.23.23.55.34.97.34.14,0,.27,0,.39-.03.13-.02.24-.04.35-.06.12-.02.23-.04.33-.07v-3.69s.02-.05.04-.05h1.18s.04.02.04.05v4.87Z"/>
      <path class="st2" d="M136.2,19.03v-4.7s.02-.08.06-.09c.22-.08.45-.15.69-.21.24-.06.49-.11.76-.16.27-.04.54-.07.82-.07.42,0,.78.06,1.11.17.32.12.59.28.81.48.22.2.38.45.5.73.11.28.17.59.17.92v2.93c0,.05-.04.09-.09.09h-1.09s-.09-.04-.09-.09v-2.93c0-.33-.12-.61-.35-.84-.23-.23-.55-.34-.97-.34-.14,0-.27.01-.39.04-.12.02-.24.05-.34.06,0,0,0,0-.01,0-.09.03-.18.06-.27.09-.03.01-.06.05-.06.09v3.82c0,.05-.04.09-.09.09h-1.09s-.09-.04-.09-.09"/>
      <path class="st2" d="M135.39,16.02c0-.7-.2-1.24-.61-1.65-.4-.4-1-.6-1.78-.6-.29,0-.55.03-.77.08-.22.05-.42.12-.59.19-.17.08-.33.17-.46.26-.02.01-.02.04-.01.06l.45.85s.04.03.06.02c.11-.06.22-.11.35-.16.12-.04.27-.08.43-.12.17-.04.35-.06.54-.06.39,0,.67.08.85.25.18.16.27.39.27.68-.1-.02-.21-.04-.32-.05-.1-.01-.22-.03-.36-.04-.14,0-.28-.01-.44-.01-.43,0-.8.05-1.1.14-.31.09-.56.22-.76.37-.2.16-.34.34-.44.56-.09.22-.14.46-.14.72s.05.49.14.71c.09.22.24.41.44.57.2.16.45.28.76.37.3.09.67.14,1.1.14.32,0,.62-.02.9-.05.26-.03.49-.07.71-.11l.78-.73v-2.39ZM134.12,18.02c-.1.03-.22.05-.34.07-.1.02-.22.04-.36.06-.13.02-.27.03-.42.03-.42,0-.71-.07-.87-.2-.16-.13-.25-.29-.25-.47s.08-.33.25-.47c.17-.13.46-.2.87-.2.15,0,.29,0,.42.02.13.01.25.02.36.04.12.01.24.03.34.05v1.07Z"/>
    </g>
    <g>
      <rect class="st5" x="155.01" y="22.3" width="11.71" height="1.25" transform="translate(321.73 45.84) rotate(180)"/>
      <rect class="st6" x="166.72" y="22.3" width="2.99" height="1.25" transform="translate(336.44 45.84) rotate(180)"/>
      <rect class="st4" x="169.71" y="22.3" width="10.83" height="1.25" transform="translate(350.26 45.84) rotate(180)"/>
    </g>
  </g>
</svg>