<?xml version="1.0" encoding="UTF-8" ?>
<!DOCTYPE svg PUBLIC "-//W3C//DTD SVG 1.1//EN" "http://www.w3.org/Graphics/SVG/1.1/DTD/svg11.dtd">
<svg width="400pt" height="403pt" viewBox="0 0 400 403" version="1.1" xmlns="http://www.w3.org/2000/svg">
<g id="#96d9f7ff">
<path fill="#96d9f7" opacity="1.00" d=" M 180.01 25.88 C 189.22 24.10 198.68 25.18 208.02 25.00 C 218.80 26.84 229.96 26.86 240.40 30.54 C 243.15 30.96 245.95 31.15 248.44 32.56 C 253.92 33.68 259.10 35.74 264.32 37.69 C 271.71 41.26 279.41 44.19 286.32 48.67 C 291.67 51.93 297.21 54.90 302.18 58.74 C 295.78 62.62 290.09 68.44 287.70 75.68 C 286.77 77.34 287.23 79.27 287.18 81.08 C 277.30 73.25 266.16 66.95 254.36 62.51 C 239.35 56.24 223.25 52.46 206.99 51.67 C 195.50 51.91 183.83 50.68 172.53 53.33 C 158.36 55.80 144.48 60.09 131.57 66.46 C 99.94 81.38 74.27 108.02 59.60 139.68 C 47.23 167.05 42.83 198.12 48.03 227.76 C 50.47 240.42 53.49 253.10 59.21 264.73 C 80.39 313.35 129.11 348.75 182.00 353.39 C 211.20 356.74 241.20 350.70 267.29 337.32 C 283.53 328.72 298.69 317.63 310.53 303.48 C 331.34 280.82 344.11 251.33 347.94 220.91 C 348.34 212.12 349.94 203.31 348.69 194.51 C 347.80 179.73 344.89 165.07 340.01 151.08 C 334.92 137.57 328.10 124.73 319.70 112.98 C 326.00 113.71 331.30 109.68 335.27 105.26 C 337.61 103.03 339.84 100.66 341.33 97.76 C 343.25 99.91 344.67 102.45 346.07 104.96 C 349.00 109.73 352.44 114.27 354.53 119.51 C 361.04 130.29 364.88 142.34 368.87 154.17 C 371.36 165.02 373.31 176.00 375.00 186.99 C 375.13 196.99 375.22 207.00 375.03 217.00 C 373.98 223.06 373.64 229.22 372.30 235.25 C 371.56 243.29 368.08 250.70 366.62 258.57 C 365.23 261.67 364.24 264.93 363.18 268.15 C 355.70 285.62 346.41 302.47 333.89 316.87 C 331.15 321.07 326.92 323.98 324.13 328.14 C 319.59 331.20 316.45 335.87 311.87 338.89 C 307.08 343.55 301.27 346.94 296.02 351.03 C 292.43 353.56 288.35 355.27 284.70 357.71 C 275.81 363.56 265.63 366.83 255.89 370.90 C 246.04 374.36 235.81 376.48 225.62 378.67 C 222.93 379.31 220.12 378.84 217.43 379.46 C 212.64 380.76 207.57 379.35 202.80 380.81 C 198.81 381.21 194.68 381.30 190.76 380.29 C 186.12 379.72 181.34 380.61 176.77 379.31 C 168.08 378.88 159.75 376.25 151.20 374.84 C 142.95 371.69 134.25 369.70 126.29 365.74 C 118.23 363.11 111.22 358.20 103.78 354.23 C 96.94 349.00 89.39 344.74 82.75 339.25 C 75.85 332.48 69.08 325.58 62.23 318.77 C 60.14 316.77 58.91 314.11 57.15 311.85 C 52.57 307.23 49.57 301.40 45.98 296.02 C 42.47 290.92 39.88 285.28 37.26 279.71 C 29.80 265.04 25.10 249.06 22.09 232.92 C 22.28 228.79 20.80 224.93 20.04 220.94 C 19.76 210.30 19.93 199.64 19.94 188.98 C 19.79 183.90 22.10 179.11 21.99 174.02 C 23.85 161.39 27.21 148.95 32.08 137.14 C 33.46 131.65 37.15 127.22 38.85 121.85 C 42.81 113.79 48.22 106.52 52.82 98.82 C 54.73 96.70 56.42 94.41 58.13 92.14 C 61.32 87.41 65.90 83.85 69.29 79.29 C 76.71 70.96 85.86 64.50 94.40 57.40 C 97.19 55.49 99.94 53.47 102.99 51.98 C 107.00 50.09 110.23 46.84 114.51 45.48 C 119.35 42.34 125.00 40.87 129.99 37.99 C 145.88 31.41 162.90 27.35 180.01 25.88 Z" />
<path fill="#96d9f7" opacity="1.00" d=" M 143.91 171.22 C 153.91 167.18 165.10 166.18 175.70 168.13 C 182.23 169.78 188.03 175.30 189.18 182.07 C 189.92 191.71 190.60 201.42 189.59 211.07 C 189.94 219.73 190.80 228.52 189.14 237.11 C 186.39 237.39 183.64 237.38 180.90 237.12 C 180.65 235.26 180.43 233.40 180.22 231.54 C 176.70 230.49 174.42 234.41 171.38 235.51 C 162.72 240.05 151.12 240.29 143.39 233.73 C 137.99 230.13 136.64 223.06 136.91 217.00 C 136.56 211.39 138.03 205.26 142.52 201.53 C 148.03 195.76 156.43 195.04 163.95 194.92 C 169.07 194.68 173.95 196.38 178.81 197.72 C 179.37 197.01 179.90 196.27 180.39 195.51 C 181.30 188.66 179.87 180.36 173.47 176.52 C 169.56 174.72 165.08 174.86 160.88 175.12 C 155.97 175.45 151.63 177.92 147.02 179.33 C 144.06 178.11 143.31 174.11 143.91 171.22 M 158.40 203.44 C 154.30 204.50 148.37 205.66 147.78 210.76 C 146.54 215.89 146.25 221.88 149.83 226.18 C 153.49 231.11 160.47 230.02 165.82 229.78 C 171.44 227.46 178.80 224.72 179.77 217.81 C 179.87 214.05 180.87 209.71 178.59 206.41 C 175.53 204.52 171.85 204.23 168.39 203.62 C 165.11 202.98 161.69 202.69 158.40 203.44 Z" />
</g>
<g id="#009de2ff">
<path fill="#009de2" opacity="1.00" d=" M 172.53 53.33 C 183.83 50.68 195.50 51.91 206.99 51.67 C 223.25 52.46 239.35 56.24 254.36 62.51 C 266.16 66.95 277.30 73.25 287.18 81.08 C 286.89 87.33 287.23 93.91 290.80 99.30 C 295.06 105.67 301.44 111.26 309.21 112.59 C 312.69 113.08 316.21 112.83 319.70 112.98 C 328.10 124.73 334.92 137.57 340.01 151.08 C 344.89 165.07 347.80 179.73 348.69 194.51 C 349.94 203.31 348.34 212.12 347.94 220.91 C 344.11 251.33 331.34 280.82 310.53 303.48 C 298.69 317.63 283.53 328.72 267.29 337.32 C 241.20 350.70 211.20 356.74 182.00 353.39 C 129.11 348.75 80.39 313.35 59.21 264.73 C 53.49 253.10 50.47 240.42 48.03 227.76 C 42.83 198.12 47.23 167.05 59.60 139.68 C 74.27 108.02 99.94 81.38 131.57 66.46 C 144.48 60.09 158.36 55.80 172.53 53.33 M 91.56 169.41 C 87.95 170.54 85.49 173.65 82.13 175.26 C 81.34 173.20 81.16 171.00 81.01 168.83 C 77.98 168.67 74.95 168.59 71.93 168.25 C 71.87 199.58 71.66 230.93 72.04 262.26 C 75.04 260.77 78.02 259.25 81.07 257.87 C 81.54 249.93 81.12 241.97 81.23 234.02 C 80.96 232.61 81.95 231.69 82.86 230.81 C 86.33 233.69 89.91 236.89 94.52 237.66 C 100.75 238.90 107.79 238.92 113.28 235.32 C 120.60 231.04 123.63 222.41 125.72 214.67 C 126.26 209.15 127.35 203.60 126.93 198.03 C 126.10 191.97 125.64 185.71 122.98 180.10 C 119.86 173.93 114.33 168.31 107.14 167.61 C 101.92 166.55 96.50 167.66 91.56 169.41 M 143.91 171.22 C 143.31 174.11 144.06 178.11 147.02 179.33 C 151.63 177.92 155.97 175.45 160.88 175.12 C 165.08 174.86 169.56 174.72 173.47 176.52 C 179.87 180.36 181.30 188.66 180.39 195.51 C 179.90 196.27 179.37 197.01 178.81 197.72 C 173.95 196.38 169.07 194.68 163.95 194.92 C 156.43 195.04 148.03 195.76 142.52 201.53 C 138.03 205.26 136.56 211.39 136.91 217.00 C 136.64 223.06 137.99 230.13 143.39 233.73 C 151.12 240.29 162.72 240.05 171.38 235.51 C 174.42 234.41 176.70 230.49 180.22 231.54 C 180.43 233.40 180.65 235.26 180.90 237.12 C 183.64 237.38 186.39 237.39 189.14 237.11 C 190.80 228.52 189.94 219.73 189.59 211.07 C 190.60 201.42 189.92 191.71 189.18 182.07 C 188.03 175.30 182.23 169.78 175.70 168.13 C 165.10 166.18 153.91 167.18 143.91 171.22 M 226.71 167.57 C 221.88 168.69 217.71 171.57 214.16 174.93 C 213.62 172.89 213.20 170.82 212.85 168.74 C 209.90 168.51 206.93 168.53 203.98 168.75 C 203.86 191.54 204.01 214.33 203.97 237.12 C 207.03 237.26 210.09 237.26 213.15 237.12 C 213.52 223.09 213.13 209.04 213.33 195.01 C 213.69 187.29 216.80 178.44 224.89 175.92 C 229.73 173.85 234.23 177.36 239.04 177.37 C 240.20 174.49 241.07 171.44 240.94 168.31 C 236.23 167.79 231.41 166.17 226.71 167.57 M 295.36 167.28 C 290.92 167.61 286.43 168.31 282.41 170.33 C 274.20 175.78 271.97 188.75 278.89 196.07 C 286.77 204.92 300.01 205.44 308.27 213.74 C 311.81 216.94 311.76 223.04 308.27 226.26 C 304.47 230.81 297.89 231.35 292.42 230.47 C 287.32 229.73 283.07 226.62 278.85 223.90 C 276.05 224.19 273.39 227.27 272.88 229.92 C 275.33 233.08 279.40 234.46 282.95 236.09 C 288.59 238.69 294.95 238.40 301.00 238.15 C 307.05 237.53 313.34 235.08 316.80 229.82 C 320.33 226.09 319.31 220.66 319.42 216.00 C 319.81 210.62 315.53 206.42 311.63 203.37 C 304.09 199.02 295.80 196.15 288.35 191.65 C 286.31 189.16 283.56 186.57 284.02 183.03 C 283.50 179.93 286.38 178.10 288.59 176.60 C 291.27 174.49 294.90 175.25 298.07 175.16 C 302.88 175.16 307.10 177.78 311.20 180.00 C 314.73 181.03 319.87 174.63 315.51 172.44 C 309.78 168.11 302.27 167.56 295.36 167.28 M 251.95 168.74 C 251.83 191.53 251.78 214.31 251.99 237.09 C 255.04 237.24 258.08 237.25 261.13 237.13 C 261.62 214.78 260.73 192.41 261.55 170.08 C 261.37 169.77 261.00 169.15 260.82 168.84 C 257.88 168.37 254.90 168.63 251.95 168.74 Z" />
<path fill="#009de2" opacity="1.00" d=" M 311.31 71.17 C 317.95 69.34 325.94 73.08 328.31 79.66 C 330.96 85.96 328.72 94.30 322.45 97.53 C 317.92 100.34 312.03 99.92 307.34 97.74 C 301.61 93.97 298.84 86.18 301.63 79.77 C 302.84 75.28 307.02 72.36 311.31 71.17 Z" />
<path fill="#009de2" opacity="1.00" d=" M 98.35 176.21 C 102.99 175.62 107.84 177.57 111.05 180.94 C 116.07 187.85 116.60 196.74 116.29 204.99 C 116.48 213.12 114.54 222.59 107.63 227.70 C 99.69 231.58 89.66 228.44 84.16 221.85 C 82.25 220.13 83.12 217.27 82.86 215.00 C 83.13 204.80 82.41 194.52 83.20 184.37 C 86.84 179.71 92.52 176.86 98.35 176.21 Z" />
<path fill="#009de2" opacity="1.00" d=" M 158.40 203.44 C 161.69 202.69 165.11 202.98 168.39 203.62 C 171.85 204.23 175.53 204.52 178.59 206.41 C 180.87 209.71 179.87 214.05 179.77 217.81 C 178.80 224.72 171.44 227.46 165.82 229.78 C 160.47 230.02 153.49 231.11 149.83 226.18 C 146.25 221.88 146.54 215.89 147.78 210.76 C 148.37 205.66 154.30 204.50 158.40 203.44 Z" />
</g>
<g id="#000000ff">
<path fill="#000000" opacity="1.00" d=" M 91.56 169.41 C 96.50 167.66 101.92 166.55 107.14 167.61 C 114.33 168.31 119.86 173.93 122.98 180.10 C 125.64 185.71 126.10 191.97 126.93 198.03 C 127.35 203.60 126.26 209.15 125.72 214.67 C 123.63 222.41 120.60 231.04 113.28 235.32 C 107.79 238.92 100.75 238.90 94.52 237.66 C 89.91 236.89 86.33 233.69 82.86 230.81 C 81.95 231.69 80.96 232.61 81.23 234.02 C 81.12 241.97 81.54 249.93 81.07 257.87 C 78.02 259.25 75.04 260.77 72.04 262.26 C 71.66 230.93 71.87 199.58 71.93 168.25 C 74.95 168.59 77.98 168.67 81.01 168.83 C 81.16 171.00 81.34 173.20 82.13 175.26 C 85.49 173.65 87.95 170.54 91.56 169.41 M 98.35 176.21 C 92.52 176.86 86.84 179.71 83.20 184.37 C 82.41 194.52 83.13 204.80 82.86 215.00 C 83.12 217.27 82.25 220.13 84.16 221.85 C 89.66 228.44 99.69 231.58 107.63 227.70 C 114.54 222.59 116.48 213.12 116.29 204.99 C 116.60 196.74 116.07 187.85 111.05 180.94 C 107.84 177.57 102.99 175.62 98.35 176.21 Z" />
<path fill="#000000" opacity="1.00" d=" M 226.71 167.57 C 231.41 166.17 236.23 167.79 240.94 168.31 C 241.07 171.44 240.20 174.49 239.04 177.37 C 234.23 177.36 229.73 173.85 224.89 175.92 C 216.80 178.44 213.69 187.29 213.33 195.01 C 213.13 209.04 213.52 223.09 213.15 237.12 C 210.09 237.26 207.03 237.26 203.97 237.12 C 204.01 214.33 203.86 191.54 203.98 168.75 C 206.93 168.53 209.90 168.51 212.85 168.74 C 213.20 170.82 213.62 172.89 214.16 174.93 C 217.71 171.57 221.88 168.69 226.71 167.57 Z" />
<path fill="#000000" opacity="1.00" d=" M 295.36 167.28 C 302.27 167.56 309.78 168.11 315.51 172.44 C 319.87 174.63 314.73 181.03 311.20 180.00 C 307.10 177.78 302.88 175.16 298.07 175.16 C 294.90 175.25 291.27 174.49 288.59 176.60 C 286.38 178.10 283.50 179.93 284.02 183.03 C 283.56 186.57 286.31 189.16 288.35 191.65 C 295.80 196.15 304.09 199.02 311.63 203.37 C 315.53 206.42 319.81 210.62 319.42 216.00 C 319.31 220.66 320.33 226.09 316.80 229.82 C 313.34 235.08 307.05 237.53 301.00 238.15 C 294.95 238.40 288.59 238.69 282.95 236.09 C 279.40 234.46 275.33 233.08 272.88 229.92 C 273.39 227.27 276.05 224.19 278.85 223.90 C 283.07 226.62 287.32 229.73 292.42 230.47 C 297.89 231.35 304.47 230.81 308.27 226.26 C 311.76 223.04 311.81 216.94 308.27 213.74 C 300.01 205.44 286.77 204.92 278.89 196.07 C 271.97 188.75 274.20 175.78 282.41 170.33 C 286.43 168.31 290.92 167.61 295.36 167.28 Z" />
<path fill="#000000" opacity="1.00" d=" M 251.95 168.74 C 254.90 168.63 257.88 168.37 260.82 168.84 C 261.00 169.15 261.37 169.77 261.55 170.08 C 260.73 192.41 261.62 214.78 261.13 237.13 C 258.08 237.25 255.04 237.24 251.99 237.09 C 251.78 214.31 251.83 191.53 251.95 168.74 Z" />
</g>
</svg>
